<svg width="65" height="64" viewBox="0 0 65 64" fill="none" xmlns="http://www.w3.org/2000/svg">
<path d="M55.4235 49.3484L53.5655 40.1695C53.5655 40.1683 53.5649 40.1676 53.5649 40.1663L51.7076 30.9907C51.3153 29.0508 50.2183 27.374 48.6177 26.2297C49.1399 25.4713 49.4471 24.5535 49.4471 23.5647C49.4471 21.2505 47.7691 19.3247 45.5668 18.9286L41.3761 11.671C41.7025 10.7718 41.7499 9.79705 41.4971 8.85369C41.1713 7.63769 40.3905 6.62073 39.3006 5.99161C38.2107 5.36185 36.9403 5.19481 35.7236 5.52121C34.7067 5.79385 33.8337 6.38649 33.2052 7.20953H25.1054C23.6891 5.35929 21.0811 4.79545 19.01 5.99161C17.9201 6.62073 17.1399 7.63769 16.8142 8.85369C16.5614 9.79705 16.6081 10.7711 16.9345 11.6703L12.7444 18.9292C10.5422 19.3247 8.86475 21.2505 8.86475 23.5647C8.86475 25.7113 10.3086 27.5231 12.2747 28.0908L16.7956 35.9212C16.3041 37.9078 17.1515 40.0646 19.0107 41.1379C19.7511 41.5654 20.5607 41.7683 21.3595 41.7683C22.4782 41.7683 23.5719 41.3619 24.4327 40.6233H26.3259V48.3948H22.7649C22.1991 48.3948 21.7403 48.8537 21.7403 49.4195V53.0316C21.7403 53.5974 22.1991 54.0563 22.7649 54.0563H26.3259V57.6172C26.3259 58.183 26.7847 58.6412 27.3505 58.6412H30.9627C31.5284 58.6412 31.9873 58.1823 31.9873 57.6172V54.0563H35.5483C36.114 54.0563 36.5723 53.5974 36.5723 53.0316V49.4195C36.5723 48.8537 36.1134 48.3948 35.5483 48.3948H31.9873V40.6233H33.8695C34.4001 41.0815 35.0279 41.422 35.7255 41.6089C36.1319 41.7171 36.5441 41.7715 36.9531 41.7715C37.3236 41.7715 37.6903 41.7215 38.05 41.6339L38.3758 43.2415C38.3758 43.2422 38.3758 43.2428 38.3758 43.2435L40.2337 52.4223C40.9774 56.0966 44.2171 58.6406 47.826 58.6406C48.3329 58.6406 48.8475 58.5907 49.3627 58.4863C53.5527 57.6377 56.2721 53.5385 55.4235 49.3484ZM42.2414 52.0166L40.587 43.8412L51.7601 41.5801L53.4151 49.7548C54.0391 52.8377 52.0391 55.854 48.9563 56.478C45.8817 57.0995 42.866 55.1001 42.2414 52.0166ZM30.962 38.574C30.3963 38.574 29.9374 39.0329 29.9374 39.5987V49.4195C29.9374 49.9852 30.3963 50.4441 30.962 50.4441H34.523V52.007H30.962C30.3963 52.007 29.9374 52.4659 29.9374 53.0316V56.5926H28.3745V53.0316C28.3745 52.4659 27.9156 52.007 27.3499 52.007H23.7889V50.4441H27.3499C27.9156 50.4441 28.3745 49.9852 28.3745 49.4195V39.5987C28.3745 39.0329 27.9156 38.574 27.3499 38.574H25.8286C26.0027 38.0627 26.0801 37.5347 26.0743 37.0118H32.2369C32.2311 37.5353 32.3086 38.0633 32.4827 38.574H30.962ZM12.6958 21.0617C12.9729 20.9631 13.2673 20.8998 13.5777 20.8998C13.7057 20.8998 13.8273 20.9196 13.9508 20.9375C14.4942 21.0143 14.9825 21.2518 15.3691 21.6051C15.6468 21.8598 15.8759 22.1657 16.0263 22.5164C16.1646 22.8383 16.2427 23.1923 16.2427 23.5641C16.2427 24.0831 16.0871 24.5644 15.8292 24.974C15.6372 25.2793 15.3895 25.5449 15.0939 25.7497C14.6631 26.0499 14.1415 26.2278 13.5783 26.2278C13.5739 26.2278 13.57 26.2265 13.5655 26.2265C13.0375 26.2239 12.5473 26.0646 12.1339 25.7958C11.4017 25.3203 10.914 24.4991 10.914 23.5635C10.914 22.4063 11.6615 21.4278 12.6958 21.0617ZM32.3073 9.25945C32.2164 9.78041 32.2107 10.3084 32.2939 10.8217H26.018C26.1012 10.3084 26.0955 9.78041 26.0046 9.25945H32.3073ZM37.6494 28.2406C36.827 29.4911 36.395 30.9177 36.3687 32.3756C35.7486 32.4518 35.1451 32.6515 34.5876 32.9734C33.7524 33.4553 33.122 34.1567 32.7239 34.9619H25.5873C25.1892 34.1561 24.5588 33.4553 23.7236 32.9734C22.9511 32.5273 22.1031 32.3308 21.2699 32.3487L17.6052 26.0012C18.0379 25.2889 18.2919 24.4569 18.2919 23.5641C18.2919 22.8185 18.1134 22.1151 17.8036 21.4879L21.6846 14.766C22.3822 14.7199 23.0798 14.5279 23.7243 14.1555C24.3047 13.8201 24.7847 13.3785 25.1585 12.8703H33.154C33.5278 13.3785 34.0078 13.8207 34.5883 14.1555C35.2334 14.5279 35.9303 14.7199 36.6279 14.766L40.5089 21.4879C40.1998 22.1158 40.0206 22.8185 40.0206 23.5641C40.0206 24.3161 40.2023 25.0259 40.5172 25.6569C39.3697 26.2553 38.3841 27.1327 37.6494 28.2406ZM47.3979 23.5647C47.3979 24.2092 47.1591 24.7923 46.7771 25.2531C46.6983 25.2243 46.6196 25.1955 46.5403 25.1692C46.203 25.0572 45.8599 24.9651 45.5118 24.9011C44.9415 24.7967 44.3585 24.7622 43.7729 24.7891C43.7204 24.7916 43.6679 24.7942 43.6155 24.7974C43.3435 24.8153 43.0715 24.8467 42.7995 24.894C42.7233 24.9068 42.6465 24.9132 42.5703 24.9286C42.546 24.9337 42.523 24.9414 42.4987 24.9471C42.4897 24.9491 42.4807 24.9516 42.4711 24.9535C42.3777 24.8025 42.3009 24.6412 42.2395 24.4716C42.1358 24.1868 42.0699 23.8841 42.0699 23.5641C42.0699 23.1923 42.1479 22.8383 42.2855 22.5164C42.4359 22.1657 42.6651 21.8591 42.9428 21.6051C43.3294 21.2511 43.8177 21.0143 44.3611 20.9375C44.4839 20.9203 44.6062 20.8998 44.7342 20.8998C45.0446 20.8998 45.3383 20.9631 45.6161 21.0617C46.6497 21.4278 47.3979 22.4063 47.3979 23.5647ZM41.9022 19.8047L38.7854 14.407C39.2641 14.2041 39.7083 13.9187 40.1019 13.5628L43.2871 19.0803C42.7828 19.2428 42.3169 19.4918 41.9022 19.8047ZM36.2548 7.50073C36.4846 7.43929 36.7175 7.40857 36.9492 7.40857C37.4107 7.40857 37.8663 7.52953 38.2766 7.76633C38.8929 8.12217 39.3339 8.69625 39.5175 9.38425C39.6231 9.77593 39.6276 10.1766 39.554 10.5631C39.499 10.8556 39.4043 11.1411 39.2513 11.4054C39.1873 11.5161 39.1092 11.6115 39.0324 11.7094C38.6939 12.1414 38.2452 12.446 37.7454 12.6041C37.3863 12.718 37.0068 12.7622 36.6273 12.7174C36.2798 12.6764 35.9342 12.567 35.6123 12.3807C35.4254 12.2732 35.2628 12.1414 35.1131 11.9987C35.0625 11.9507 35.019 11.8982 34.9723 11.8463C34.7035 11.5475 34.5051 11.1993 34.3937 10.8217C34.2465 10.3193 34.2439 9.77593 34.4097 9.25945C34.4667 9.08281 34.5403 8.90937 34.6369 8.74169C34.7457 8.55353 34.8807 8.38777 35.0279 8.23417C35.3607 7.88665 35.7774 7.62873 36.2548 7.50073ZM23.6743 8.74169C23.771 8.90873 23.8446 9.08217 23.9015 9.25945C24.0679 9.77593 24.0654 10.3193 23.9175 10.8217C23.8068 11.1993 23.6084 11.5475 23.3396 11.8463C23.1566 12.0505 22.9492 12.2374 22.6996 12.3807C22.3777 12.567 22.0327 12.6764 21.6846 12.7174C21.3057 12.7622 20.9262 12.7174 20.5671 12.6035C20.0673 12.446 19.618 12.1407 19.2795 11.7094C19.2033 11.6115 19.1239 11.5161 19.0606 11.4054C18.9076 11.1404 18.8129 10.855 18.7579 10.5631C18.6849 10.1759 18.6894 9.77593 18.7943 9.38361C18.9787 8.69625 19.419 8.12153 20.0353 7.76569C21.1175 7.14105 22.4551 7.37081 23.2846 8.23353C23.4292 8.38649 23.5643 8.55161 23.6743 8.74169ZM18.2094 13.5622C18.603 13.9187 19.0471 14.2041 19.5259 14.407L16.4091 19.8047C15.9943 19.4918 15.5291 19.2428 15.0235 19.0803L18.2094 13.5622ZM16.1198 27.5283L19.2052 32.8723C18.7419 33.111 18.3156 33.4284 17.947 33.8175L14.6721 28.1452C15.1937 28.0204 15.6814 27.8105 16.1198 27.5283ZM20.0347 39.3625C19.2238 38.8947 18.7566 38.0614 18.7111 37.1897C18.6855 36.6969 18.7918 36.1926 19.0542 35.7343C19.0561 35.7305 19.0567 35.7267 19.0593 35.7228C19.3415 35.2351 19.7582 34.8742 20.2331 34.6515C20.5582 34.4985 20.9108 34.4121 21.2705 34.3987C21.3044 34.3974 21.3377 34.3923 21.3716 34.3923C21.8017 34.3923 22.2356 34.4998 22.6375 34.718C22.658 34.7295 22.6791 34.7372 22.6996 34.7487V34.7494C22.8078 34.8115 22.9012 34.8889 22.9966 34.9638C23.3531 35.2409 23.6251 35.5923 23.7979 35.9884C23.9393 36.3116 24.0142 36.6591 24.0206 37.0131C24.0289 37.4803 23.9246 37.9558 23.6743 38.3891C23.6353 38.4569 23.5841 38.5126 23.5399 38.5759C23.1873 39.0803 22.6913 39.4329 22.1339 39.6006C21.4535 39.8035 20.6964 39.7446 20.0347 39.3625ZM34.7707 38.574C34.7271 38.5113 34.6759 38.455 34.6369 38.3871C34.3867 37.9539 34.2823 37.4783 34.2907 37.0111C34.2971 36.6572 34.3719 36.3097 34.5134 35.9865C34.6868 35.5903 34.9582 35.2396 35.3147 34.9619C35.4107 34.887 35.5035 34.8095 35.6116 34.7475C35.6321 34.7359 35.6532 34.727 35.6737 34.7161C35.9617 34.5593 36.2702 34.4556 36.587 34.4127L36.7022 34.983L37.0094 36.4998L37.4196 38.5254L37.6244 39.5379L37.6404 39.6159C37.1911 39.7388 36.7169 39.7516 36.2542 39.6281C36.2267 39.6204 36.2017 39.6063 36.1742 39.598C35.5982 39.4246 35.1131 39.0655 34.7707 38.574ZM39.6411 39.1692L39.4107 38.03L39.3345 37.6518L39.0273 36.1343L38.8366 35.1929L38.5588 33.8214L38.5403 33.7311L38.5262 33.6595C38.4539 33.3011 38.418 32.9414 38.4142 32.583C38.4116 32.3827 38.418 32.1823 38.4366 31.9833C38.5236 31.0611 38.8359 30.167 39.3601 29.3708C39.7524 28.7801 40.2439 28.2809 40.8052 27.8815C41.1329 27.6486 41.483 27.4483 41.8555 27.2889C42.0513 27.2051 42.2516 27.1315 42.4577 27.0694C42.6279 27.0182 42.8007 26.9734 42.9774 26.9375C43.0446 26.9241 43.1124 26.9183 43.1796 26.9068C43.5867 26.8396 43.9937 26.8166 44.3963 26.8358C44.7649 26.8537 45.1297 26.9075 45.4868 26.9958C45.6007 27.0246 45.7147 27.0534 45.8267 27.0886C46.0462 27.1583 46.2606 27.2441 46.4711 27.3407C46.674 27.4335 46.8718 27.5385 47.0651 27.6563C47.131 27.6966 47.1995 27.7318 47.2641 27.7747C48.5326 28.6169 49.3979 29.9027 49.7006 31.3964L51.3556 39.5711L40.1819 41.8329L39.9489 40.6822L39.7089 39.4963L39.6411 39.1692ZM40.0481 34.3654C39.8158 34.222 39.6391 33.9878 39.5809 33.6985C39.5483 33.5379 39.5259 33.3311 39.5131 33.1039C39.4964 32.8095 39.5041 32.4723 39.5483 32.1068C39.6379 31.3695 39.8785 30.5375 40.4091 29.7939C40.7022 29.3823 41.0612 29.0451 41.4702 28.7782C41.9822 28.4441 42.5742 28.2233 43.2353 28.1356C43.371 28.1183 43.5041 28.1299 43.6302 28.1625C43.9937 28.2591 44.2836 28.5516 44.3668 28.9356C44.3726 28.9625 44.3822 28.9881 44.386 29.0156C44.4526 29.5161 44.1454 29.9782 43.6801 30.1254C43.6238 30.1433 43.5662 30.1587 43.5054 30.167C43.0734 30.2246 42.7227 30.3756 42.4347 30.6118C42.3035 30.7187 42.1819 30.8383 42.0782 30.9836C41.9207 31.2044 41.8081 31.4591 41.7243 31.7196C41.5361 32.3071 41.5156 32.9292 41.5892 33.2927C41.6244 33.4668 41.6091 33.6383 41.5598 33.7971C41.5131 33.9481 41.435 34.0876 41.3262 34.2015C41.2071 34.327 41.0542 34.4191 40.8801 34.4716C40.8494 34.4806 40.8199 34.4934 40.7879 34.5004C40.7195 34.5145 40.651 34.5209 40.5838 34.5209C40.3905 34.5203 40.2068 34.4633 40.0481 34.3654ZM48.6606 55.2902C48.5921 55.3036 48.5243 55.3107 48.4564 55.3107C47.979 55.3107 47.5515 54.9753 47.4529 54.4889C47.3409 53.9347 47.6993 53.3939 48.2542 53.2819C48.6331 53.2051 48.9953 53.0412 49.3147 52.8038C49.883 52.3814 50.3118 51.7183 50.4417 50.8556C50.507 50.4217 50.4974 49.9391 50.3905 49.4111C50.2779 48.8563 50.6363 48.3155 51.1918 48.2041C51.7486 48.0902 52.2868 48.4511 52.3988 49.0047C53.0119 52.0319 51.4043 54.7347 48.6606 55.2902Z" fill="#897AE3"/>
</svg>
